<mxfile host="app.diagrams.net" modified="2023-10-22T17:46:26.560Z" agent="Mozilla/5.0 (X11; Linux x86_64) AppleWebKit/537.36 (KHTML, like Gecko) Chrome/118.0.0.0 Safari/537.36" etag="NO_A824fkRLTBmYWsGP0" version="22.0.6" type="google" pages="3">
  <diagram name="Data" id="g924wV_q9lsqk1HLsQ02">
    <mxGraphModel grid="1" page="0" gridSize="10" guides="1" tooltips="1" connect="1" arrows="1" fold="1" pageScale="1" pageWidth="827" pageHeight="1169" math="0" shadow="0">
      <root>
        <mxCell id="0" />
        <mxCell id="1" parent="0" />
        <mxCell id="8jh1-jTcFAT42vZJKRF9-1" value="Student" style="swimlane;fontStyle=0;childLayout=stackLayout;horizontal=1;startSize=26;fillColor=none;horizontalStack=0;resizeParent=1;resizeParentMax=0;resizeLast=0;collapsible=1;marginBottom=0;whiteSpace=wrap;html=1;" vertex="1" parent="1">
          <mxGeometry x="-90" y="430" width="200" height="78" as="geometry" />
        </mxCell>
        <mxCell id="8jh1-jTcFAT42vZJKRF9-2" value="&lt;b&gt;+ registration: CefetRegistration&lt;/b&gt;" style="text;strokeColor=none;fillColor=none;align=left;verticalAlign=top;spacingLeft=4;spacingRight=4;overflow=hidden;rotatable=0;points=[[0,0.5],[1,0.5]];portConstraint=eastwest;whiteSpace=wrap;html=1;" vertex="1" parent="8jh1-jTcFAT42vZJKRF9-1">
          <mxGeometry y="26" width="200" height="26" as="geometry" />
        </mxCell>
        <mxCell id="8jh1-jTcFAT42vZJKRF9-3" value="+ full_name: string" style="text;strokeColor=none;fillColor=none;align=left;verticalAlign=top;spacingLeft=4;spacingRight=4;overflow=hidden;rotatable=0;points=[[0,0.5],[1,0.5]];portConstraint=eastwest;whiteSpace=wrap;html=1;" vertex="1" parent="8jh1-jTcFAT42vZJKRF9-1">
          <mxGeometry y="52" width="200" height="26" as="geometry" />
        </mxCell>
        <mxCell id="8jh1-jTcFAT42vZJKRF9-5" value="Researcher" style="swimlane;fontStyle=0;childLayout=stackLayout;horizontal=1;startSize=26;fillColor=none;horizontalStack=0;resizeParent=1;resizeParentMax=0;resizeLast=0;collapsible=1;marginBottom=0;whiteSpace=wrap;html=1;" vertex="1" parent="1">
          <mxGeometry x="310" y="430" width="140" height="78" as="geometry" />
        </mxCell>
        <mxCell id="8jh1-jTcFAT42vZJKRF9-6" value="&lt;b&gt;+ lattes_id: LattesId&lt;/b&gt;" style="text;strokeColor=none;fillColor=none;align=left;verticalAlign=top;spacingLeft=4;spacingRight=4;overflow=hidden;rotatable=0;points=[[0,0.5],[1,0.5]];portConstraint=eastwest;whiteSpace=wrap;html=1;" vertex="1" parent="8jh1-jTcFAT42vZJKRF9-5">
          <mxGeometry y="26" width="140" height="26" as="geometry" />
        </mxCell>
        <mxCell id="8jh1-jTcFAT42vZJKRF9-7" value="+ full_name: string" style="text;strokeColor=none;fillColor=none;align=left;verticalAlign=top;spacingLeft=4;spacingRight=4;overflow=hidden;rotatable=0;points=[[0,0.5],[1,0.5]];portConstraint=eastwest;whiteSpace=wrap;html=1;" vertex="1" parent="8jh1-jTcFAT42vZJKRF9-5">
          <mxGeometry y="52" width="140" height="26" as="geometry" />
        </mxCell>
        <mxCell id="8jh1-jTcFAT42vZJKRF9-9" value="ScientificSerialPublisher" style="swimlane;fontStyle=0;childLayout=stackLayout;horizontal=1;startSize=26;fillColor=none;horizontalStack=0;resizeParent=1;resizeParentMax=0;resizeLast=0;collapsible=1;marginBottom=0;whiteSpace=wrap;html=1;" vertex="1" parent="1">
          <mxGeometry x="610" y="260" width="170" height="104" as="geometry" />
        </mxCell>
        <mxCell id="8jh1-jTcFAT42vZJKRF9-10" value="&lt;b&gt;+ issn: Issn&lt;/b&gt;" style="text;strokeColor=none;fillColor=none;align=left;verticalAlign=top;spacingLeft=4;spacingRight=4;overflow=hidden;rotatable=0;points=[[0,0.5],[1,0.5]];portConstraint=eastwest;whiteSpace=wrap;html=1;" vertex="1" parent="8jh1-jTcFAT42vZJKRF9-9">
          <mxGeometry y="26" width="170" height="26" as="geometry" />
        </mxCell>
        <mxCell id="8jh1-jTcFAT42vZJKRF9-11" value="+ name: string" style="text;strokeColor=none;fillColor=none;align=left;verticalAlign=top;spacingLeft=4;spacingRight=4;overflow=hidden;rotatable=0;points=[[0,0.5],[1,0.5]];portConstraint=eastwest;whiteSpace=wrap;html=1;" vertex="1" parent="8jh1-jTcFAT42vZJKRF9-9">
          <mxGeometry y="52" width="170" height="26" as="geometry" />
        </mxCell>
        <mxCell id="pQckuiZSKcIOORofO2P--1" value="+ qualis: QualisEnum" style="text;strokeColor=none;fillColor=none;align=left;verticalAlign=top;spacingLeft=4;spacingRight=4;overflow=hidden;rotatable=0;points=[[0,0.5],[1,0.5]];portConstraint=eastwest;whiteSpace=wrap;html=1;" vertex="1" parent="8jh1-jTcFAT42vZJKRF9-9">
          <mxGeometry y="78" width="170" height="26" as="geometry" />
        </mxCell>
        <mxCell id="8jh1-jTcFAT42vZJKRF9-17" style="rounded=0;orthogonalLoop=1;jettySize=auto;html=1;entryX=0.5;entryY=0;entryDx=0;entryDy=0;" edge="1" parent="1" source="8jh1-jTcFAT42vZJKRF9-13" target="8jh1-jTcFAT42vZJKRF9-5">
          <mxGeometry relative="1" as="geometry" />
        </mxCell>
        <mxCell id="8jh1-jTcFAT42vZJKRF9-23" style="rounded=0;orthogonalLoop=1;jettySize=auto;html=1;entryX=0.5;entryY=0;entryDx=0;entryDy=0;" edge="1" parent="1" source="8jh1-jTcFAT42vZJKRF9-13" target="8jh1-jTcFAT42vZJKRF9-1">
          <mxGeometry relative="1" as="geometry" />
        </mxCell>
        <mxCell id="8jh1-jTcFAT42vZJKRF9-13" value="EicRelationship" style="swimlane;fontStyle=0;childLayout=stackLayout;horizontal=1;startSize=26;fillColor=none;horizontalStack=0;resizeParent=1;resizeParentMax=0;resizeLast=0;collapsible=1;marginBottom=0;whiteSpace=wrap;html=1;" vertex="1" parent="1">
          <mxGeometry x="100" y="260" width="200" height="104" as="geometry" />
        </mxCell>
        <mxCell id="8jh1-jTcFAT42vZJKRF9-14" value="&lt;b&gt;+ year: int&lt;/b&gt;" style="text;strokeColor=none;fillColor=none;align=left;verticalAlign=top;spacingLeft=4;spacingRight=4;overflow=hidden;rotatable=0;points=[[0,0.5],[1,0.5]];portConstraint=eastwest;whiteSpace=wrap;html=1;" vertex="1" parent="8jh1-jTcFAT42vZJKRF9-13">
          <mxGeometry y="26" width="200" height="26" as="geometry" />
        </mxCell>
        <mxCell id="8jh1-jTcFAT42vZJKRF9-15" value="+ students: List&amp;lt;CefetRegistration&amp;gt;" style="text;strokeColor=none;fillColor=none;align=left;verticalAlign=top;spacingLeft=4;spacingRight=4;overflow=hidden;rotatable=0;points=[[0,0.5],[1,0.5]];portConstraint=eastwest;whiteSpace=wrap;html=1;" vertex="1" parent="8jh1-jTcFAT42vZJKRF9-13">
          <mxGeometry y="52" width="200" height="26" as="geometry" />
        </mxCell>
        <mxCell id="8jh1-jTcFAT42vZJKRF9-16" value="+ researchers: List&amp;lt;LattesId&amp;gt;" style="text;strokeColor=none;fillColor=none;align=left;verticalAlign=top;spacingLeft=4;spacingRight=4;overflow=hidden;rotatable=0;points=[[0,0.5],[1,0.5]];portConstraint=eastwest;whiteSpace=wrap;html=1;" vertex="1" parent="8jh1-jTcFAT42vZJKRF9-13">
          <mxGeometry y="78" width="200" height="26" as="geometry" />
        </mxCell>
        <mxCell id="qDHLPpR89eTPL8Gvhcdw-9" style="rounded=0;orthogonalLoop=1;jettySize=auto;html=1;exitX=0.5;exitY=0;exitDx=0;exitDy=0;" edge="1" parent="1" source="qDHLPpR89eTPL8Gvhcdw-1" target="8jh1-jTcFAT42vZJKRF9-9">
          <mxGeometry relative="1" as="geometry" />
        </mxCell>
        <mxCell id="qDHLPpR89eTPL8Gvhcdw-1" value="PublishedWork" style="swimlane;fontStyle=0;childLayout=stackLayout;horizontal=1;startSize=26;fillColor=none;horizontalStack=0;resizeParent=1;resizeParentMax=0;resizeLast=0;collapsible=1;marginBottom=0;whiteSpace=wrap;html=1;" vertex="1" parent="1">
          <mxGeometry x="602.5" y="554" width="185" height="156" as="geometry" />
        </mxCell>
        <mxCell id="qDHLPpR89eTPL8Gvhcdw-2" value="&lt;b&gt;+ id: UUID&lt;/b&gt;" style="text;strokeColor=none;fillColor=none;align=left;verticalAlign=top;spacingLeft=4;spacingRight=4;overflow=hidden;rotatable=0;points=[[0,0.5],[1,0.5]];portConstraint=eastwest;whiteSpace=wrap;html=1;" vertex="1" parent="qDHLPpR89eTPL8Gvhcdw-1">
          <mxGeometry y="26" width="185" height="26" as="geometry" />
        </mxCell>
        <mxCell id="qDHLPpR89eTPL8Gvhcdw-3" value="+ title: string" style="text;strokeColor=none;fillColor=none;align=left;verticalAlign=top;spacingLeft=4;spacingRight=4;overflow=hidden;rotatable=0;points=[[0,0.5],[1,0.5]];portConstraint=eastwest;whiteSpace=wrap;html=1;" vertex="1" parent="qDHLPpR89eTPL8Gvhcdw-1">
          <mxGeometry y="52" width="185" height="26" as="geometry" />
        </mxCell>
        <mxCell id="qDHLPpR89eTPL8Gvhcdw-5" value="+ year: int" style="text;strokeColor=none;fillColor=none;align=left;verticalAlign=top;spacingLeft=4;spacingRight=4;overflow=hidden;rotatable=0;points=[[0,0.5],[1,0.5]];portConstraint=eastwest;whiteSpace=wrap;html=1;" vertex="1" parent="qDHLPpR89eTPL8Gvhcdw-1">
          <mxGeometry y="78" width="185" height="26" as="geometry" />
        </mxCell>
        <mxCell id="qDHLPpR89eTPL8Gvhcdw-6" value="+ publisher_issn: Nullable&amp;lt;Issn&amp;gt;" style="text;strokeColor=none;fillColor=none;align=left;verticalAlign=top;spacingLeft=4;spacingRight=4;overflow=hidden;rotatable=0;points=[[0,0.5],[1,0.5]];portConstraint=eastwest;whiteSpace=wrap;html=1;" vertex="1" parent="qDHLPpR89eTPL8Gvhcdw-1">
          <mxGeometry y="104" width="185" height="26" as="geometry" />
        </mxCell>
        <mxCell id="qDHLPpR89eTPL8Gvhcdw-4" value="+ authors: List&amp;lt;string&amp;gt;" style="text;strokeColor=none;fillColor=none;align=left;verticalAlign=top;spacingLeft=4;spacingRight=4;overflow=hidden;rotatable=0;points=[[0,0.5],[1,0.5]];portConstraint=eastwest;whiteSpace=wrap;html=1;" vertex="1" parent="qDHLPpR89eTPL8Gvhcdw-1">
          <mxGeometry y="130" width="185" height="26" as="geometry" />
        </mxCell>
        <mxCell id="1zkkpSsUQUTHsU7D6Cw5-5" style="rounded=0;orthogonalLoop=1;jettySize=auto;html=1;" edge="1" parent="1" source="1zkkpSsUQUTHsU7D6Cw5-1" target="8jh1-jTcFAT42vZJKRF9-1">
          <mxGeometry relative="1" as="geometry" />
        </mxCell>
        <mxCell id="1zkkpSsUQUTHsU7D6Cw5-6" style="rounded=0;orthogonalLoop=1;jettySize=auto;html=1;" edge="1" parent="1" source="1zkkpSsUQUTHsU7D6Cw5-1" target="8jh1-jTcFAT42vZJKRF9-5">
          <mxGeometry relative="1" as="geometry" />
        </mxCell>
        <mxCell id="1zkkpSsUQUTHsU7D6Cw5-7" style="rounded=0;orthogonalLoop=1;jettySize=auto;html=1;" edge="1" parent="1" source="1zkkpSsUQUTHsU7D6Cw5-1" target="qDHLPpR89eTPL8Gvhcdw-1">
          <mxGeometry relative="1" as="geometry" />
        </mxCell>
        <mxCell id="1zkkpSsUQUTHsU7D6Cw5-1" value="AuthorshipRelationship" style="swimlane;fontStyle=0;childLayout=stackLayout;horizontal=1;startSize=26;fillColor=none;horizontalStack=0;resizeParent=1;resizeParentMax=0;resizeLast=0;collapsible=1;marginBottom=0;whiteSpace=wrap;html=1;" vertex="1" parent="1">
          <mxGeometry x="100" y="580" width="200" height="104" as="geometry" />
        </mxCell>
        <mxCell id="1zkkpSsUQUTHsU7D6Cw5-2" value="&lt;b&gt;+ id: UUID&lt;/b&gt;" style="text;strokeColor=none;fillColor=none;align=left;verticalAlign=top;spacingLeft=4;spacingRight=4;overflow=hidden;rotatable=0;points=[[0,0.5],[1,0.5]];portConstraint=eastwest;whiteSpace=wrap;html=1;" vertex="1" parent="1zkkpSsUQUTHsU7D6Cw5-1">
          <mxGeometry y="26" width="200" height="26" as="geometry" />
        </mxCell>
        <mxCell id="1zkkpSsUQUTHsU7D6Cw5-3" value="+ students: List&amp;lt;CefetRegistration&amp;gt;" style="text;strokeColor=none;fillColor=none;align=left;verticalAlign=top;spacingLeft=4;spacingRight=4;overflow=hidden;rotatable=0;points=[[0,0.5],[1,0.5]];portConstraint=eastwest;whiteSpace=wrap;html=1;" vertex="1" parent="1zkkpSsUQUTHsU7D6Cw5-1">
          <mxGeometry y="52" width="200" height="26" as="geometry" />
        </mxCell>
        <mxCell id="1zkkpSsUQUTHsU7D6Cw5-4" value="+ researchers: List&amp;lt;LattesId&amp;gt;" style="text;strokeColor=none;fillColor=none;align=left;verticalAlign=top;spacingLeft=4;spacingRight=4;overflow=hidden;rotatable=0;points=[[0,0.5],[1,0.5]];portConstraint=eastwest;whiteSpace=wrap;html=1;" vertex="1" parent="1zkkpSsUQUTHsU7D6Cw5-1">
          <mxGeometry y="78" width="200" height="26" as="geometry" />
        </mxCell>
      </root>
    </mxGraphModel>
  </diagram>
  <diagram id="5BA3nEMadehkh-iV1kBV" name="Modules">
    <mxGraphModel grid="1" page="0" gridSize="10" guides="1" tooltips="1" connect="1" arrows="1" fold="1" pageScale="1" pageWidth="827" pageHeight="1169" math="0" shadow="0">
      <root>
        <mxCell id="0" />
        <mxCell id="1" parent="0" />
        <mxCell id="O_pOclD7AqJxKqq9FH5Q-16" style="edgeStyle=orthogonalEdgeStyle;rounded=0;orthogonalLoop=1;jettySize=auto;html=1;" edge="1" parent="1" source="O_pOclD7AqJxKqq9FH5Q-2" target="O_pOclD7AqJxKqq9FH5Q-3">
          <mxGeometry relative="1" as="geometry" />
        </mxCell>
        <mxCell id="O_pOclD7AqJxKqq9FH5Q-2" value="XLSX Report View" style="shape=module;align=left;spacingLeft=20;align=center;verticalAlign=top;whiteSpace=wrap;html=1;" vertex="1" parent="1">
          <mxGeometry x="-480" y="250" width="130" height="50" as="geometry" />
        </mxCell>
        <mxCell id="O_pOclD7AqJxKqq9FH5Q-14" style="edgeStyle=orthogonalEdgeStyle;rounded=0;orthogonalLoop=1;jettySize=auto;html=1;" edge="1" parent="1" source="O_pOclD7AqJxKqq9FH5Q-3" target="O_pOclD7AqJxKqq9FH5Q-13">
          <mxGeometry relative="1" as="geometry" />
        </mxCell>
        <mxCell id="O_pOclD7AqJxKqq9FH5Q-3" value="Report Presenter" style="shape=module;align=left;spacingLeft=20;align=center;verticalAlign=top;whiteSpace=wrap;html=1;" vertex="1" parent="1">
          <mxGeometry x="-480" y="80" width="130" height="50" as="geometry" />
        </mxCell>
        <mxCell id="O_pOclD7AqJxKqq9FH5Q-4" value="Interface Report Generator" style="shape=module;align=left;spacingLeft=20;align=center;verticalAlign=top;whiteSpace=wrap;html=1;" vertex="1" parent="1">
          <mxGeometry x="178" y="-90" width="130" height="50" as="geometry" />
        </mxCell>
        <mxCell id="O_pOclD7AqJxKqq9FH5Q-11" style="edgeStyle=orthogonalEdgeStyle;rounded=0;orthogonalLoop=1;jettySize=auto;html=1;" edge="1" parent="1" source="mzHQakg94LfL3IKHxKvE-1" target="O_pOclD7AqJxKqq9FH5Q-4">
          <mxGeometry relative="1" as="geometry">
            <Array as="points">
              <mxPoint x="31" y="20" />
              <mxPoint x="243" y="20" />
            </Array>
          </mxGeometry>
        </mxCell>
        <mxCell id="mzHQakg94LfL3IKHxKvE-1" value="PublishedWorks Collector" style="shape=module;align=left;spacingLeft=20;align=center;verticalAlign=top;whiteSpace=wrap;html=1;" vertex="1" parent="1">
          <mxGeometry x="-34" y="80" width="130" height="50" as="geometry" />
        </mxCell>
        <mxCell id="O_pOclD7AqJxKqq9FH5Q-8" style="edgeStyle=orthogonalEdgeStyle;rounded=0;orthogonalLoop=1;jettySize=auto;html=1;" edge="1" parent="1" source="mzHQakg94LfL3IKHxKvE-2" target="O_pOclD7AqJxKqq9FH5Q-4">
          <mxGeometry relative="1" as="geometry" />
        </mxCell>
        <mxCell id="mzHQakg94LfL3IKHxKvE-2" value="Researchers Collector" style="shape=module;align=left;spacingLeft=20;align=center;verticalAlign=top;whiteSpace=wrap;html=1;" vertex="1" parent="1">
          <mxGeometry x="178" y="80" width="130" height="50" as="geometry" />
        </mxCell>
        <mxCell id="O_pOclD7AqJxKqq9FH5Q-9" style="edgeStyle=orthogonalEdgeStyle;rounded=0;orthogonalLoop=1;jettySize=auto;html=1;" edge="1" parent="1" source="mzHQakg94LfL3IKHxKvE-3" target="O_pOclD7AqJxKqq9FH5Q-4">
          <mxGeometry relative="1" as="geometry">
            <Array as="points">
              <mxPoint x="454" y="20" />
              <mxPoint x="243" y="20" />
            </Array>
          </mxGeometry>
        </mxCell>
        <mxCell id="mzHQakg94LfL3IKHxKvE-3" value="Students Collector" style="shape=module;align=left;spacingLeft=20;align=center;verticalAlign=top;whiteSpace=wrap;html=1;" vertex="1" parent="1">
          <mxGeometry x="389" y="80" width="130" height="50" as="geometry" />
        </mxCell>
        <mxCell id="O_pOclD7AqJxKqq9FH5Q-10" style="edgeStyle=orthogonalEdgeStyle;rounded=0;orthogonalLoop=1;jettySize=auto;html=1;" edge="1" parent="1" source="O_pOclD7AqJxKqq9FH5Q-1" target="O_pOclD7AqJxKqq9FH5Q-4">
          <mxGeometry relative="1" as="geometry">
            <Array as="points">
              <mxPoint x="665" y="20" />
              <mxPoint x="243" y="20" />
            </Array>
          </mxGeometry>
        </mxCell>
        <mxCell id="O_pOclD7AqJxKqq9FH5Q-1" value="ScientificSerialPublisher Collector" style="shape=module;align=left;spacingLeft=20;align=center;verticalAlign=top;whiteSpace=wrap;html=1;" vertex="1" parent="1">
          <mxGeometry x="580" y="80" width="170" height="50" as="geometry" />
        </mxCell>
        <mxCell id="O_pOclD7AqJxKqq9FH5Q-12" style="edgeStyle=orthogonalEdgeStyle;rounded=0;orthogonalLoop=1;jettySize=auto;html=1;" edge="1" parent="1" source="O_pOclD7AqJxKqq9FH5Q-5" target="O_pOclD7AqJxKqq9FH5Q-4">
          <mxGeometry relative="1" as="geometry">
            <Array as="points">
              <mxPoint x="-180" y="20" />
              <mxPoint x="243" y="20" />
            </Array>
          </mxGeometry>
        </mxCell>
        <mxCell id="O_pOclD7AqJxKqq9FH5Q-5" value="Database Gateway" style="shape=module;align=left;spacingLeft=20;align=center;verticalAlign=top;whiteSpace=wrap;html=1;" vertex="1" parent="1">
          <mxGeometry x="-250" y="80" width="140" height="50" as="geometry" />
        </mxCell>
        <mxCell id="O_pOclD7AqJxKqq9FH5Q-15" style="edgeStyle=orthogonalEdgeStyle;rounded=0;orthogonalLoop=1;jettySize=auto;html=1;" edge="1" parent="1" source="O_pOclD7AqJxKqq9FH5Q-13" target="O_pOclD7AqJxKqq9FH5Q-4">
          <mxGeometry relative="1" as="geometry" />
        </mxCell>
        <mxCell id="O_pOclD7AqJxKqq9FH5Q-13" value="Linear Report Generator" style="shape=module;align=left;spacingLeft=20;align=center;verticalAlign=top;whiteSpace=wrap;html=1;" vertex="1" parent="1">
          <mxGeometry x="-480" y="-90" width="130" height="50" as="geometry" />
        </mxCell>
      </root>
    </mxGraphModel>
  </diagram>
  <diagram id="NruIVY-pAksFFUQUQuMX" name="Components">
    <mxGraphModel grid="1" page="0" gridSize="10" guides="1" tooltips="1" connect="1" arrows="1" fold="1" pageScale="1" pageWidth="827" pageHeight="1169" math="0" shadow="0">
      <root>
        <mxCell id="0" />
        <mxCell id="1" parent="0" />
        <mxCell id="UVUdmniq4vKQqQ0quun4-10" value="&lt;p style=&quot;margin: 6px 0px 0px;&quot;&gt;&lt;b&gt;&amp;nbsp; Logic Layer&lt;/b&gt;&lt;/p&gt;" style="align=left;overflow=fill;html=1;dropTarget=0;whiteSpace=wrap;" vertex="1" parent="1">
          <mxGeometry x="-130" y="-460" width="970" height="390" as="geometry" />
        </mxCell>
        <mxCell id="UVUdmniq4vKQqQ0quun4-11" value="" style="shape=component;jettyWidth=8;jettyHeight=4;" vertex="1" parent="UVUdmniq4vKQqQ0quun4-10">
          <mxGeometry x="1" width="20" height="20" relative="1" as="geometry">
            <mxPoint x="-24" y="4" as="offset" />
          </mxGeometry>
        </mxCell>
        <mxCell id="wvu2l-x5AkVvMcB72rej-6" value="DataGateway" style="html=1;whiteSpace=wrap;" vertex="1" parent="1">
          <mxGeometry x="165" y="-170" width="110" height="50" as="geometry" />
        </mxCell>
        <mxCell id="wvu2l-x5AkVvMcB72rej-8" value="" style="group" connectable="0" vertex="1" parent="1">
          <mxGeometry x="-260" y="40" width="1090" height="280" as="geometry" />
        </mxCell>
        <mxCell id="eioY50DjuzXXVUgPDdE5-7" value="&lt;p style=&quot;margin: 6px 0px 0px;&quot;&gt;&lt;b&gt;&amp;nbsp; &amp;nbsp;Data Access Layer&lt;/b&gt;&lt;/p&gt;" style="align=left;overflow=fill;html=1;dropTarget=0;whiteSpace=wrap;" vertex="1" parent="wvu2l-x5AkVvMcB72rej-8">
          <mxGeometry width="1090" height="280" as="geometry" />
        </mxCell>
        <mxCell id="eioY50DjuzXXVUgPDdE5-8" value="" style="shape=component;jettyWidth=8;jettyHeight=4;" vertex="1" parent="eioY50DjuzXXVUgPDdE5-7">
          <mxGeometry x="1" width="20" height="20" relative="1" as="geometry">
            <mxPoint x="-24" y="4" as="offset" />
          </mxGeometry>
        </mxCell>
        <mxCell id="eioY50DjuzXXVUgPDdE5-2" value="IDatabase" style="html=1;whiteSpace=wrap;" vertex="1" parent="wvu2l-x5AkVvMcB72rej-8">
          <mxGeometry x="30" y="150" width="110" height="50" as="geometry" />
        </mxCell>
        <mxCell id="wvu2l-x5AkVvMcB72rej-1" style="edgeStyle=orthogonalEdgeStyle;rounded=0;orthogonalLoop=1;jettySize=auto;html=1;" edge="1" parent="wvu2l-x5AkVvMcB72rej-8" source="eioY50DjuzXXVUgPDdE5-1" target="eioY50DjuzXXVUgPDdE5-2">
          <mxGeometry relative="1" as="geometry">
            <Array as="points">
              <mxPoint x="480" y="110" />
              <mxPoint x="85" y="110" />
            </Array>
          </mxGeometry>
        </mxCell>
        <mxCell id="eioY50DjuzXXVUgPDdE5-1" value="DatabaseController" style="html=1;whiteSpace=wrap;" vertex="1" parent="wvu2l-x5AkVvMcB72rej-8">
          <mxGeometry x="422.5" y="30" width="115" height="50" as="geometry" />
        </mxCell>
        <mxCell id="hBXDdNQRIQd6uk4EqMoQ-1" value="IStudentsCollector" style="html=1;whiteSpace=wrap;" vertex="1" parent="wvu2l-x5AkVvMcB72rej-8">
          <mxGeometry x="223" y="150" width="120" height="50" as="geometry" />
        </mxCell>
        <mxCell id="wvu2l-x5AkVvMcB72rej-2" style="edgeStyle=orthogonalEdgeStyle;rounded=0;orthogonalLoop=1;jettySize=auto;html=1;" edge="1" parent="wvu2l-x5AkVvMcB72rej-8" source="eioY50DjuzXXVUgPDdE5-1" target="hBXDdNQRIQd6uk4EqMoQ-1">
          <mxGeometry relative="1" as="geometry">
            <Array as="points">
              <mxPoint x="480" y="110" />
              <mxPoint x="283" y="110" />
            </Array>
          </mxGeometry>
        </mxCell>
        <mxCell id="VjM7FW-xuo4FsHfPQKcs-1" value="IResearchesCollector" style="html=1;whiteSpace=wrap;" vertex="1" parent="wvu2l-x5AkVvMcB72rej-8">
          <mxGeometry x="410" y="150" width="140" height="50" as="geometry" />
        </mxCell>
        <mxCell id="wvu2l-x5AkVvMcB72rej-3" style="edgeStyle=orthogonalEdgeStyle;rounded=0;orthogonalLoop=1;jettySize=auto;html=1;" edge="1" parent="wvu2l-x5AkVvMcB72rej-8" source="eioY50DjuzXXVUgPDdE5-1" target="VjM7FW-xuo4FsHfPQKcs-1">
          <mxGeometry relative="1" as="geometry" />
        </mxCell>
        <mxCell id="VjM7FW-xuo4FsHfPQKcs-2" value="IPublishedWorksCollector" style="html=1;whiteSpace=wrap;" vertex="1" parent="wvu2l-x5AkVvMcB72rej-8">
          <mxGeometry x="620" y="150" width="160" height="50" as="geometry" />
        </mxCell>
        <mxCell id="wvu2l-x5AkVvMcB72rej-4" style="edgeStyle=orthogonalEdgeStyle;rounded=0;orthogonalLoop=1;jettySize=auto;html=1;" edge="1" parent="wvu2l-x5AkVvMcB72rej-8" source="eioY50DjuzXXVUgPDdE5-1" target="VjM7FW-xuo4FsHfPQKcs-2">
          <mxGeometry relative="1" as="geometry">
            <Array as="points">
              <mxPoint x="480" y="110" />
              <mxPoint x="700" y="110" />
            </Array>
          </mxGeometry>
        </mxCell>
        <mxCell id="VjM7FW-xuo4FsHfPQKcs-3" value="IScientificSerialPublishersCollector" style="html=1;whiteSpace=wrap;" vertex="1" parent="wvu2l-x5AkVvMcB72rej-8">
          <mxGeometry x="850" y="150" width="210" height="50" as="geometry" />
        </mxCell>
        <mxCell id="wvu2l-x5AkVvMcB72rej-5" style="edgeStyle=orthogonalEdgeStyle;rounded=0;orthogonalLoop=1;jettySize=auto;html=1;" edge="1" parent="wvu2l-x5AkVvMcB72rej-8" source="eioY50DjuzXXVUgPDdE5-1" target="VjM7FW-xuo4FsHfPQKcs-3">
          <mxGeometry relative="1" as="geometry">
            <Array as="points">
              <mxPoint x="480" y="110" />
              <mxPoint x="955" y="110" />
            </Array>
          </mxGeometry>
        </mxCell>
        <mxCell id="wvu2l-x5AkVvMcB72rej-7" style="rounded=0;orthogonalLoop=1;jettySize=auto;html=1;endArrow=block;endFill=0;strokeWidth=1;endSize=16;" edge="1" parent="1" source="eioY50DjuzXXVUgPDdE5-1" target="wvu2l-x5AkVvMcB72rej-6">
          <mxGeometry relative="1" as="geometry" />
        </mxCell>
        <mxCell id="wvu2l-x5AkVvMcB72rej-10" style="edgeStyle=orthogonalEdgeStyle;rounded=0;orthogonalLoop=1;jettySize=auto;html=1;entryX=0.5;entryY=0;entryDx=0;entryDy=0;" edge="1" parent="1" source="wvu2l-x5AkVvMcB72rej-9" target="wvu2l-x5AkVvMcB72rej-6">
          <mxGeometry relative="1" as="geometry" />
        </mxCell>
        <mxCell id="UVUdmniq4vKQqQ0quun4-3" style="edgeStyle=orthogonalEdgeStyle;rounded=0;orthogonalLoop=1;jettySize=auto;html=1;" edge="1" parent="1" source="wvu2l-x5AkVvMcB72rej-9" target="UVUdmniq4vKQqQ0quun4-1">
          <mxGeometry relative="1" as="geometry" />
        </mxCell>
        <mxCell id="UVUdmniq4vKQqQ0quun4-7" style="edgeStyle=orthogonalEdgeStyle;rounded=0;orthogonalLoop=1;jettySize=auto;html=1;" edge="1" parent="1" source="wvu2l-x5AkVvMcB72rej-9" target="UVUdmniq4vKQqQ0quun4-5">
          <mxGeometry relative="1" as="geometry">
            <Array as="points">
              <mxPoint x="140" y="-305" />
              <mxPoint x="140" y="-250" />
            </Array>
          </mxGeometry>
        </mxCell>
        <mxCell id="UVUdmniq4vKQqQ0quun4-8" style="edgeStyle=orthogonalEdgeStyle;rounded=0;orthogonalLoop=1;jettySize=auto;html=1;" edge="1" parent="1" source="wvu2l-x5AkVvMcB72rej-9" target="UVUdmniq4vKQqQ0quun4-6">
          <mxGeometry relative="1" as="geometry">
            <Array as="points">
              <mxPoint x="140" y="-305" />
              <mxPoint x="140" y="-165" />
            </Array>
          </mxGeometry>
        </mxCell>
        <mxCell id="wvu2l-x5AkVvMcB72rej-9" value="ReportGenerator" style="html=1;whiteSpace=wrap;" vertex="1" parent="1">
          <mxGeometry x="165" y="-330" width="110" height="50" as="geometry" />
        </mxCell>
        <mxCell id="UVUdmniq4vKQqQ0quun4-1" value="PONDOC Entities" style="html=1;whiteSpace=wrap;" vertex="1" parent="1">
          <mxGeometry x="430" y="-330" width="110" height="50" as="geometry" />
        </mxCell>
        <mxCell id="UVUdmniq4vKQqQ0quun4-4" style="edgeStyle=orthogonalEdgeStyle;rounded=0;orthogonalLoop=1;jettySize=auto;html=1;" edge="1" parent="1" source="eioY50DjuzXXVUgPDdE5-1" target="UVUdmniq4vKQqQ0quun4-1">
          <mxGeometry relative="1" as="geometry" />
        </mxCell>
        <mxCell id="UVUdmniq4vKQqQ0quun4-5" value="ReportRequest" style="html=1;whiteSpace=wrap;" vertex="1" parent="1">
          <mxGeometry x="-60" y="-270" width="110" height="50" as="geometry" />
        </mxCell>
        <mxCell id="UVUdmniq4vKQqQ0quun4-6" value="ReportResponse" style="html=1;whiteSpace=wrap;" vertex="1" parent="1">
          <mxGeometry x="-60" y="-190" width="110" height="50" as="geometry" />
        </mxCell>
        <mxCell id="Q9VFeFks9nk030k2yuOy-1" style="edgeStyle=orthogonalEdgeStyle;rounded=0;orthogonalLoop=1;jettySize=auto;html=1;endArrow=block;endFill=0;endSize=16;" edge="1" parent="1" source="3AtHPWHPnfirhuczMod_-1" target="wvu2l-x5AkVvMcB72rej-9">
          <mxGeometry relative="1" as="geometry" />
        </mxCell>
        <mxCell id="Q9VFeFks9nk030k2yuOy-4" style="edgeStyle=orthogonalEdgeStyle;rounded=0;orthogonalLoop=1;jettySize=auto;html=1;" edge="1" parent="1" source="3AtHPWHPnfirhuczMod_-1" target="Q9VFeFks9nk030k2yuOy-3">
          <mxGeometry relative="1" as="geometry">
            <Array as="points">
              <mxPoint x="-480" y="-170" />
            </Array>
          </mxGeometry>
        </mxCell>
        <mxCell id="Q9VFeFks9nk030k2yuOy-5" style="edgeStyle=orthogonalEdgeStyle;rounded=0;orthogonalLoop=1;jettySize=auto;html=1;" edge="1" parent="1" source="3AtHPWHPnfirhuczMod_-1" target="Q9VFeFks9nk030k2yuOy-2">
          <mxGeometry relative="1" as="geometry">
            <Array as="points">
              <mxPoint x="-480" y="-245" />
            </Array>
          </mxGeometry>
        </mxCell>
        <mxCell id="3AtHPWHPnfirhuczMod_-1" value="CliReportGenerator" style="html=1;whiteSpace=wrap;" vertex="1" parent="1">
          <mxGeometry x="-510" y="-400" width="140" height="50" as="geometry" />
        </mxCell>
        <mxCell id="Q9VFeFks9nk030k2yuOy-6" style="edgeStyle=orthogonalEdgeStyle;rounded=0;orthogonalLoop=1;jettySize=auto;html=1;endArrow=block;endFill=0;" edge="1" parent="1" source="Q9VFeFks9nk030k2yuOy-2" target="UVUdmniq4vKQqQ0quun4-5">
          <mxGeometry relative="1" as="geometry" />
        </mxCell>
        <mxCell id="Q9VFeFks9nk030k2yuOy-2" value="CliReportRequest" style="html=1;whiteSpace=wrap;" vertex="1" parent="1">
          <mxGeometry x="-450" y="-270" width="120" height="50" as="geometry" />
        </mxCell>
        <mxCell id="Q9VFeFks9nk030k2yuOy-7" style="edgeStyle=orthogonalEdgeStyle;rounded=0;orthogonalLoop=1;jettySize=auto;html=1;endArrow=block;endFill=0;" edge="1" parent="1" source="Q9VFeFks9nk030k2yuOy-3" target="UVUdmniq4vKQqQ0quun4-6">
          <mxGeometry relative="1" as="geometry" />
        </mxCell>
        <mxCell id="Q9VFeFks9nk030k2yuOy-3" value="CliReportResponse" style="html=1;whiteSpace=wrap;" vertex="1" parent="1">
          <mxGeometry x="-450" y="-190" width="120" height="50" as="geometry" />
        </mxCell>
      </root>
    </mxGraphModel>
  </diagram>
</mxfile>
